# xmcd
#
# Track frame offsets: 
#        150
#        16815
#        43104
#        59677
#        76026
#
# Disc length: 1229 seconds
#
# Revision: 0
# Processed by: cddbd v1.5.2PL0 Copyright (c) Steve Scherf et al.
# Submitted via: ExactAudioCopyFreeDBPlugin 1.0
#
DISCID=3404cb05
DTITLE=Jester Jay - If The Hat Fits ...
DYEAR=2005
DGENRE=Blues/Funk
TTITLE0=All She Is, Is Mist
TTITLE1=Stepping Stones To You
TTITLE2=Red and Blue
TTITLE3=Why Do I Love You?
TTITLE4=Funk'N' A 
EXTD=
EXTT0=
EXTT1=
EXTT2=
EXTT3=
EXTT4=
PLAYORDER=
